<svg width="100" height="100" viewBox="0 0 100 100" fill="none" xmlns="http://www.w3.org/2000/svg">
<line x1="25" y1="45" x2="15" y2="45" stroke="#22c55e" stroke-width="4" stroke-linecap="round"/>
<line x1="75" y1="45" x2="85" y2="45" stroke="#22c55e" stroke-width="4" stroke-linecap="round"/>
<line x1="25" y1="60" x2="15" y2="60" stroke="#22c55e" stroke-width="4" stroke-linecap="round"/>
<line x1="75" y1="60" x2="85" y2="60" stroke="#22c55e" stroke-width="4" stroke-linecap="round"/>
<line x1="25" y1="75" x2="15" y2="75" stroke="#22c55e" stroke-width="4" stroke-linecap="round"/>
<line x1="75" y1="75" x2="85" y2="75" stroke="#22c55e" stroke-width="4" stroke-linecap="round"/>
<rect x="30" y="20" width="40" height="15" rx="8" fill="#1e293b" stroke="#22c55e" stroke-width="1.5"/>
<rect x="25" y="32" width="50" height="18" rx="8" fill="#1e293b" stroke="#22c55e" stroke-width="1.5"/>
<rect x="20" y="45" width="60" height="20" rx="8" fill="#1e293b" stroke="#22c55e" stroke-width="1.5"/>
<rect x="25" y="58" width="50" height="18" rx="8" fill="#1e293b" stroke="#22c55e" stroke-width="1.5"/>
<rect x="35" y="70" width="30" height="15" rx="8" fill="#1e293b" stroke="#22c55e" stroke-width="1.5"/>
<circle cx="40" cy="30" r="10" fill="#030711"/>
<circle cx="60" cy="30" r="10" fill="#030711"/>
<circle cx="42" cy="30" r="4" fill="#22c55e"/>
<circle cx="62" cy="30" r="4" fill="#22c55e"/>
<line x1="40" y1="20" x2="30" y2="10" stroke="#22c55e" stroke-width="3" stroke-linecap="round"/>
<line x1="60" y1="20" x2="70" y2="10" stroke="#22c55e" stroke-width="3" stroke-linecap="round"/>
<circle cx="28" cy="8" r="3" fill="#22c55e"/>
<circle cx="72" cy="8" r="3" fill="#22c55e"/>
</svg>
